# xmcd
#
# Track frame offsets: 
#        150
#        17772
#        39968
#        58138
#        74405
#        94075
#        109137
#        122356
#        140613
#        158323
#        180717
#        200605
#        217169
#
# Disc length: 3164 seconds
#
# Revision: 1
# Processed by: cddbd v1.5.2PL0 Copyright (c) Steve Scherf et al.
# Submitted via: ExactAudioCopy v1.3
#
DISCID=b60c5a0d
DTITLE=Justice - †
DYEAR=2007
DGENRE=Electronic
TTITLE0=Genesis
TTITLE1=Let There Be Light
TTITLE2=D.A.N.C.E.
TTITLE3=New Jack
TTITLE4=Phantom
TTITLE5=Phantom P† II
TTITLE6=Valentine
TTITLE7=Tthhee Ppaarrttyy
TTITLE8=DVNO
TTITLE9=Stress
TTITLE10=Waters of Nazareth
TTITLE11=One Minute to Midnight
TTITLE12=D.A.N.C.E. (Rehearsal Version)
EXTD=
EXTT0=
EXTT1=
EXTT2=
EXTT3=
EXTT4=
EXTT5=
EXTT6=
EXTT7=
EXTT8=
EXTT9=
EXTT10=
EXTT11=
EXTT12=
PLAYORDER=
